<mxfile host="app.diagrams.net" modified="2024-06-11T18:42:27.776Z" agent="Mozilla/5.0 (Windows NT 10.0; Win64; x64) AppleWebKit/537.36 (KHTML, like Gecko) Chrome/125.0.0.0 Safari/537.36 Edg/125.0.0.0" etag="IUVr3MbToxiElKLhkogv" version="24.5.3" type="device">
  <diagram id="3j9G0F825_cHGCq9AKto" name="Page-2">
    <mxGraphModel dx="2672" dy="-6106" grid="1" gridSize="10" guides="1" tooltips="1" connect="1" arrows="1" fold="1" page="1" pageScale="1" pageWidth="827" pageHeight="1169" math="0" shadow="0">
      <root>
        <mxCell id="0" />
        <mxCell id="1" parent="0" />
        <mxCell id="QFe1ScGnCT4EniJzE_eW-143" value="" style="rounded=0;whiteSpace=wrap;html=1;" parent="1" vertex="1">
          <mxGeometry x="-160.07000000000005" y="7200" width="1250" height="860" as="geometry" />
        </mxCell>
        <mxCell id="QFe1ScGnCT4EniJzE_eW-144" value="" style="rounded=0;whiteSpace=wrap;html=1;fillColor=#f5f5f5;fontColor=#333333;strokeColor=#666666;rotation=-270;" parent="1" vertex="1">
          <mxGeometry x="-480.0000000000001" y="7524.6900000000005" width="857.5" height="213.13" as="geometry" />
        </mxCell>
        <mxCell id="QFe1ScGnCT4EniJzE_eW-145" value="&lt;font size=&quot;3&quot;&gt;&lt;b&gt;LOGO&lt;/b&gt;&lt;/font&gt;" style="rhombus;whiteSpace=wrap;html=1;fillColor=#dae8fc;strokeColor=#6c8ebf;" parent="1" vertex="1">
          <mxGeometry x="-149.07000000000005" y="7210" width="80" height="80" as="geometry" />
        </mxCell>
        <mxCell id="QFe1ScGnCT4EniJzE_eW-146" value="&lt;b&gt;Logout&lt;/b&gt;" style="rounded=0;whiteSpace=wrap;html=1;fillColor=#dae8fc;strokeColor=#6c8ebf;" parent="1" vertex="1">
          <mxGeometry x="919.93" y="7230" width="90" height="40" as="geometry" />
        </mxCell>
        <mxCell id="QFe1ScGnCT4EniJzE_eW-147" value="" style="rounded=0;whiteSpace=wrap;html=1;fillColor=#f5f5f5;fontColor=#f5f5f5;strokeColor=#666666;" parent="1" vertex="1">
          <mxGeometry x="-159.07000000000005" y="7960" width="1249" height="100" as="geometry" />
        </mxCell>
        <mxCell id="QFe1ScGnCT4EniJzE_eW-148" value="&lt;font style=&quot;font-size: 14px;&quot;&gt;Footer Information&lt;/font&gt;" style="text;html=1;align=center;verticalAlign=middle;whiteSpace=wrap;rounded=0;" parent="1" vertex="1">
          <mxGeometry x="393.92999999999995" y="7995" width="126" height="30" as="geometry" />
        </mxCell>
        <mxCell id="QFe1ScGnCT4EniJzE_eW-149" value="&lt;b&gt;&lt;font style=&quot;font-size: 18px;&quot;&gt;Welcome Message&lt;/font&gt;&lt;/b&gt;" style="text;html=1;align=center;verticalAlign=middle;whiteSpace=wrap;rounded=0;" parent="1" vertex="1">
          <mxGeometry x="80.92999999999995" y="7220" width="230" height="30" as="geometry" />
        </mxCell>
        <mxCell id="QFe1ScGnCT4EniJzE_eW-150" value="Current user information" style="text;html=1;align=center;verticalAlign=middle;whiteSpace=wrap;rounded=0;" parent="1" vertex="1">
          <mxGeometry x="100.92999999999995" y="7260" width="160" height="30" as="geometry" />
        </mxCell>
        <mxCell id="QFe1ScGnCT4EniJzE_eW-151" value="&lt;font style=&quot;font-size: 14px;&quot;&gt;Menu Options&lt;/font&gt;" style="text;html=1;align=center;verticalAlign=middle;whiteSpace=wrap;rounded=0;" parent="1" vertex="1">
          <mxGeometry x="-139.07000000000005" y="7370" width="110" height="30" as="geometry" />
        </mxCell>
        <mxCell id="QFe1ScGnCT4EniJzE_eW-152" value="&lt;font style=&quot;font-size: 14px;&quot;&gt;Dashboard&lt;/font&gt;" style="text;html=1;align=center;verticalAlign=middle;whiteSpace=wrap;rounded=0;" parent="1" vertex="1">
          <mxGeometry x="-154.07000000000005" y="7440" width="110" height="30" as="geometry" />
        </mxCell>
        <mxCell id="QFe1ScGnCT4EniJzE_eW-153" value="&lt;font style=&quot;font-size: 14px;&quot;&gt;Transactions&lt;/font&gt;" style="text;html=1;align=center;verticalAlign=middle;whiteSpace=wrap;rounded=0;fillColor=#FFFFFF;strokeColor=#FFFFFF;" parent="1" vertex="1">
          <mxGeometry x="-134.07000000000005" y="7481.26" width="110" height="30" as="geometry" />
        </mxCell>
        <mxCell id="QFe1ScGnCT4EniJzE_eW-154" value="&lt;font style=&quot;font-size: 14px;&quot;&gt;Manage Accounts&lt;/font&gt;" style="text;html=1;align=center;verticalAlign=middle;whiteSpace=wrap;rounded=0;fillColor=#FFFFFF;" parent="1" vertex="1">
          <mxGeometry x="-134.07000000000005" y="7525.95" width="140" height="30" as="geometry" />
        </mxCell>
        <mxCell id="QFe1ScGnCT4EniJzE_eW-155" value="&lt;font style=&quot;font-size: 14px;&quot;&gt;Register new customer&lt;/font&gt;" style="text;html=1;align=center;verticalAlign=middle;whiteSpace=wrap;rounded=0;fillColor=#3399FF;" parent="1" vertex="1">
          <mxGeometry x="-134.07000000000005" y="7580" width="180" height="30" as="geometry" />
        </mxCell>
        <mxCell id="QFe1ScGnCT4EniJzE_eW-156" value="&lt;font style=&quot;font-size: 14px;&quot;&gt;Manage Customers&lt;/font&gt;" style="text;html=1;align=center;verticalAlign=middle;whiteSpace=wrap;rounded=0;" parent="1" vertex="1">
          <mxGeometry x="-120.71" y="7630" width="139.07" height="30" as="geometry" />
        </mxCell>
        <mxCell id="QFe1ScGnCT4EniJzE_eW-157" value="&lt;font style=&quot;font-size: 14px;&quot;&gt;Profile&lt;/font&gt;" style="text;html=1;align=center;verticalAlign=middle;whiteSpace=wrap;rounded=0;" parent="1" vertex="1">
          <mxGeometry x="-150.00000000000006" y="7670" width="110" height="30" as="geometry" />
        </mxCell>
        <mxCell id="QFe1ScGnCT4EniJzE_eW-158" style="edgeStyle=orthogonalEdgeStyle;rounded=0;orthogonalLoop=1;jettySize=auto;html=1;exitX=0.5;exitY=1;exitDx=0;exitDy=0;" parent="1" source="QFe1ScGnCT4EniJzE_eW-157" target="QFe1ScGnCT4EniJzE_eW-157" edge="1">
          <mxGeometry relative="1" as="geometry" />
        </mxCell>
        <mxCell id="QFe1ScGnCT4EniJzE_eW-159" value="" style="endArrow=none;html=1;rounded=0;" parent="1" edge="1">
          <mxGeometry width="50" height="50" relative="1" as="geometry">
            <mxPoint x="-19.07000000000005" y="7420" as="sourcePoint" />
            <mxPoint x="-139.07000000000005" y="7420" as="targetPoint" />
          </mxGeometry>
        </mxCell>
        <mxCell id="QFe1ScGnCT4EniJzE_eW-160" value="register new customer" style="text;html=1;align=center;verticalAlign=middle;whiteSpace=wrap;rounded=0;" parent="1" vertex="1">
          <mxGeometry x="459.92999999999995" y="7330" width="120.07" height="30" as="geometry" />
        </mxCell>
        <mxCell id="QFe1ScGnCT4EniJzE_eW-161" style="edgeStyle=orthogonalEdgeStyle;rounded=0;orthogonalLoop=1;jettySize=auto;html=1;exitX=0.5;exitY=1;exitDx=0;exitDy=0;" parent="1" source="QFe1ScGnCT4EniJzE_eW-155" target="QFe1ScGnCT4EniJzE_eW-155" edge="1">
          <mxGeometry relative="1" as="geometry" />
        </mxCell>
        <mxCell id="QFe1ScGnCT4EniJzE_eW-162" value="" style="strokeWidth=1;shadow=0;dashed=0;align=center;html=1;shape=mxgraph.mockup.forms.rrect;rSize=0;strokeColor=#999999;fillColor=#ffffff;" parent="1" vertex="1">
          <mxGeometry x="249.9999999999999" y="7370" width="590" height="570" as="geometry" />
        </mxCell>
        <mxCell id="QFe1ScGnCT4EniJzE_eW-163" value="Register" style="strokeWidth=1;shadow=0;dashed=0;align=center;html=1;shape=mxgraph.mockup.forms.anchor;fontSize=12;fontColor=#666666;align=left;resizeWidth=1;spacingLeft=0;" parent="QFe1ScGnCT4EniJzE_eW-162" vertex="1">
          <mxGeometry width="295" height="20" relative="1" as="geometry">
            <mxPoint x="10" y="10" as="offset" />
          </mxGeometry>
        </mxCell>
        <mxCell id="QFe1ScGnCT4EniJzE_eW-164" value="" style="shape=line;strokeColor=#ddeeff;strokeWidth=2;html=1;resizeWidth=1;" parent="QFe1ScGnCT4EniJzE_eW-162" vertex="1">
          <mxGeometry width="531" height="10" relative="1" as="geometry">
            <mxPoint x="10" y="30" as="offset" />
          </mxGeometry>
        </mxCell>
        <mxCell id="QFe1ScGnCT4EniJzE_eW-165" value="User Name:" style="strokeWidth=1;shadow=0;dashed=0;align=center;html=1;shape=mxgraph.mockup.forms.anchor;fontSize=12;fontColor=#666666;align=left;resizeWidth=1;spacingLeft=0;" parent="QFe1ScGnCT4EniJzE_eW-162" vertex="1">
          <mxGeometry width="295" height="20" relative="1" as="geometry">
            <mxPoint x="10" y="40" as="offset" />
          </mxGeometry>
        </mxCell>
        <mxCell id="QFe1ScGnCT4EniJzE_eW-166" value="johndoe" style="strokeWidth=1;shadow=0;dashed=0;align=center;html=1;shape=mxgraph.mockup.forms.rrect;rSize=0;strokeColor=#999999;fontColor=#666666;align=left;spacingLeft=5;resizeWidth=1;" parent="QFe1ScGnCT4EniJzE_eW-162" vertex="1">
          <mxGeometry width="442.5" height="25" relative="1" as="geometry">
            <mxPoint x="10" y="60" as="offset" />
          </mxGeometry>
        </mxCell>
        <mxCell id="QFe1ScGnCT4EniJzE_eW-167" value="LastName" style="strokeWidth=1;shadow=0;dashed=0;align=center;html=1;shape=mxgraph.mockup.forms.anchor;fontSize=12;fontColor=#666666;align=left;resizeWidth=1;spacingLeft=0;" parent="QFe1ScGnCT4EniJzE_eW-162" vertex="1">
          <mxGeometry width="295" height="20" relative="1" as="geometry">
            <mxPoint x="10" y="140" as="offset" />
          </mxGeometry>
        </mxCell>
        <mxCell id="QFe1ScGnCT4EniJzE_eW-168" value="John" style="strokeWidth=1;shadow=0;dashed=0;align=center;html=1;shape=mxgraph.mockup.forms.rrect;rSize=0;strokeColor=#999999;fontColor=#666666;align=left;spacingLeft=5;resizeWidth=1;" parent="QFe1ScGnCT4EniJzE_eW-162" vertex="1">
          <mxGeometry width="442.5" height="25" relative="1" as="geometry">
            <mxPoint x="10" y="115" as="offset" />
          </mxGeometry>
        </mxCell>
        <mxCell id="QFe1ScGnCT4EniJzE_eW-169" value="Register" style="strokeWidth=1;shadow=0;dashed=0;align=center;html=1;shape=mxgraph.mockup.forms.rrect;rSize=5;strokeColor=none;fontColor=#ffffff;fillColor=#66bbff;fontSize=16;fontStyle=1;" parent="QFe1ScGnCT4EniJzE_eW-162" vertex="1">
          <mxGeometry y="1" width="80" height="30" relative="1" as="geometry">
            <mxPoint x="20" y="-90" as="offset" />
          </mxGeometry>
        </mxCell>
        <mxCell id="QFe1ScGnCT4EniJzE_eW-170" value="" style="shape=line;strokeColor=#ddeeff;strokeWidth=2;html=1;resizeWidth=1;" parent="QFe1ScGnCT4EniJzE_eW-162" vertex="1">
          <mxGeometry y="1" width="531" height="10" relative="1" as="geometry">
            <mxPoint x="9" y="-100" as="offset" />
          </mxGeometry>
        </mxCell>
        <mxCell id="QFe1ScGnCT4EniJzE_eW-171" value="********" style="strokeWidth=1;shadow=0;dashed=0;align=center;html=1;shape=mxgraph.mockup.forms.rrect;rSize=0;strokeColor=#999999;fontColor=#666666;align=left;spacingLeft=5;resizeWidth=1;" parent="QFe1ScGnCT4EniJzE_eW-162" vertex="1">
          <mxGeometry x="8.55072463768116" y="431.6121428571429" width="442.5" height="25.446428571428573" as="geometry" />
        </mxCell>
        <mxCell id="QFe1ScGnCT4EniJzE_eW-172" value="johndoe@example.com" style="strokeWidth=1;shadow=0;dashed=0;align=center;html=1;shape=mxgraph.mockup.forms.rrect;rSize=0;strokeColor=#999999;fontColor=#666666;align=left;spacingLeft=5;resizeWidth=1;" parent="QFe1ScGnCT4EniJzE_eW-162" vertex="1">
          <mxGeometry x="8.55072463768116" y="380.71928571428583" width="442.5" height="25.446428571428573" as="geometry" />
        </mxCell>
        <mxCell id="QFe1ScGnCT4EniJzE_eW-173" value="lorem ipsum" style="strokeWidth=1;shadow=0;dashed=0;align=center;html=1;shape=mxgraph.mockup.forms.rrect;rSize=0;strokeColor=#999999;fontColor=#666666;align=left;spacingLeft=5;resizeWidth=1;" parent="QFe1ScGnCT4EniJzE_eW-162" vertex="1">
          <mxGeometry x="8.55072463768116" y="327.2817857142858" width="442.5" height="25.446428571428573" as="geometry" />
        </mxCell>
        <mxCell id="QFe1ScGnCT4EniJzE_eW-174" value="password" style="strokeWidth=1;shadow=0;dashed=0;align=center;html=1;shape=mxgraph.mockup.forms.anchor;fontSize=12;fontColor=#666666;align=left;resizeWidth=1;spacingLeft=0;" parent="QFe1ScGnCT4EniJzE_eW-162" vertex="1">
          <mxGeometry x="8.55072463768116" y="411.25500000000005" width="295" height="20.35714285714286" as="geometry" />
        </mxCell>
        <mxCell id="QFe1ScGnCT4EniJzE_eW-175" value="Email" style="strokeWidth=1;shadow=0;dashed=0;align=center;html=1;shape=mxgraph.mockup.forms.anchor;fontSize=12;fontColor=#666666;align=left;resizeWidth=1;spacingLeft=0;" parent="QFe1ScGnCT4EniJzE_eW-162" vertex="1">
          <mxGeometry x="8.55072463768116" y="360.3621428571429" width="295" height="20.35714285714286" as="geometry" />
        </mxCell>
        <mxCell id="QFe1ScGnCT4EniJzE_eW-176" value="Address" style="strokeWidth=1;shadow=0;dashed=0;align=center;html=1;shape=mxgraph.mockup.forms.anchor;fontSize=12;fontColor=#666666;align=left;resizeWidth=1;spacingLeft=0;" parent="QFe1ScGnCT4EniJzE_eW-162" vertex="1">
          <mxGeometry x="8.55072463768116" y="306.9246428571429" width="295" height="20.35714285714286" as="geometry" />
        </mxCell>
        <mxCell id="QFe1ScGnCT4EniJzE_eW-177" value="Doe" style="strokeWidth=1;shadow=0;dashed=0;align=center;html=1;shape=mxgraph.mockup.forms.rrect;rSize=0;strokeColor=#999999;fontColor=#666666;align=left;spacingLeft=5;resizeWidth=1;" parent="QFe1ScGnCT4EniJzE_eW-162" vertex="1">
          <mxGeometry x="8.55072463768116" y="175.38618131868137" width="442.5" height="25.446428571428573" as="geometry" />
        </mxCell>
        <mxCell id="QFe1ScGnCT4EniJzE_eW-178" value="FirstNAme" style="strokeWidth=1;shadow=0;dashed=0;align=center;html=1;shape=mxgraph.mockup.forms.anchor;fontSize=12;fontColor=#666666;align=left;resizeWidth=1;spacingLeft=0;" parent="QFe1ScGnCT4EniJzE_eW-162" vertex="1">
          <mxGeometry x="8.55072463768116" y="91.60714285714285" width="295" height="20.35714285714286" as="geometry" />
        </mxCell>
        <mxCell id="QFe1ScGnCT4EniJzE_eW-179" value="" style="strokeWidth=1;shadow=0;dashed=0;align=center;html=1;shape=mxgraph.mockup.forms.rrect;rSize=0;strokeColor=#999999;fillColor=#ffffff;recursiveResize=0;" parent="QFe1ScGnCT4EniJzE_eW-162" vertex="1">
          <mxGeometry x="8.554999999999994" y="230.19230769230768" width="204.59677419354838" height="67.53403846153846" as="geometry" />
        </mxCell>
        <mxCell id="QFe1ScGnCT4EniJzE_eW-180" value="Curent Account" style="strokeWidth=1;shadow=0;dashed=0;align=center;html=1;shape=mxgraph.mockup.forms.rrect;rSize=0;fillColor=#eeeeee;strokeColor=#999999;gradientColor=#cccccc;align=left;spacingLeft=4;fontSize=17;fontColor=#666666;labelPosition=right;" parent="QFe1ScGnCT4EniJzE_eW-179" vertex="1">
          <mxGeometry x="7.612903225806451" y="12.726346153846153" width="14.274193548387096" height="16.442307692307693" as="geometry" />
        </mxCell>
        <mxCell id="QFe1ScGnCT4EniJzE_eW-181" value="Savings Account" style="strokeWidth=1;shadow=0;dashed=0;align=center;html=1;shape=mxgraph.mockup.forms.checkbox;rSize=0;resizable=0;fillColor=#aaaaaa;strokeColor=#444444;gradientColor=#666666;align=left;spacingLeft=4;fontSize=17;fontColor=#008cff;labelPosition=right;" parent="QFe1ScGnCT4EniJzE_eW-179" vertex="1">
          <mxGeometry x="7.612903225806451" y="47.47442307692308" width="15" height="15" as="geometry" />
        </mxCell>
        <mxCell id="QFe1ScGnCT4EniJzE_eW-183" value="&lt;font style=&quot;font-size: 18px;&quot;&gt;&lt;b&gt;Manage Customers&lt;/b&gt;&lt;/font&gt;" style="text;html=1;align=center;verticalAlign=middle;whiteSpace=wrap;rounded=0;" parent="1" vertex="1">
          <mxGeometry x="370" y="7080" width="188" height="30" as="geometry" />
        </mxCell>
        <mxCell id="rqpkRDc5HdvK3YEeWjWB-39" value="&lt;h1 style=&quot;margin-top: 0px;&quot;&gt;A&lt;/h1&gt;" style="text;html=1;whiteSpace=wrap;overflow=hidden;rounded=0;align=center;" parent="1" vertex="1">
          <mxGeometry x="572" y="7310" width="30" height="40" as="geometry" />
        </mxCell>
        <mxCell id="rqpkRDc5HdvK3YEeWjWB-41" value="&lt;h1 style=&quot;margin-top: 0px;&quot;&gt;H&lt;/h1&gt;" style="text;html=1;whiteSpace=wrap;overflow=hidden;rounded=0;align=center;" parent="1" vertex="1">
          <mxGeometry x="509" y="7200" width="30" height="40" as="geometry" />
        </mxCell>
        <mxCell id="rqpkRDc5HdvK3YEeWjWB-42" value="&lt;h1 style=&quot;margin-top: 0px;&quot;&gt;B&lt;/h1&gt;" style="text;html=1;whiteSpace=wrap;overflow=hidden;rounded=0;align=center;" parent="1" vertex="1">
          <mxGeometry x="5.930000000000064" y="7210" width="30" height="40" as="geometry" />
        </mxCell>
        <mxCell id="rqpkRDc5HdvK3YEeWjWB-43" value="&lt;h1 style=&quot;margin-top: 0px;&quot;&gt;C&lt;/h1&gt;" style="text;html=1;whiteSpace=wrap;overflow=hidden;rounded=0;align=center;" parent="1" vertex="1">
          <mxGeometry x="565.04" y="7985" width="30" height="40" as="geometry" />
        </mxCell>
      </root>
    </mxGraphModel>
  </diagram>
</mxfile>
